<?xml version="1.0" encoding="UTF-8"?>
<!DOCTYPE svg PUBLIC "-//W3C//DTD SVG 1.1//EN" "http://www.w3.org/Graphics/SVG/1.1/DTD/svg11.dtd">
<!-- Creator: CorelDRAW 2021 (64-Bit) -->
<svg xmlns="http://www.w3.org/2000/svg" xml:space="preserve" width="50px" height="57px" version="1.1" style="shape-rendering:geometricPrecision; text-rendering:geometricPrecision; image-rendering:optimizeQuality; fill-rule:evenodd; clip-rule:evenodd"
viewBox="0 0 3.46 3.97"
 xmlns:xlink="http://www.w3.org/1999/xlink"
 xmlns:xodm="http://www.corel.com/coreldraw/odm/2003">
 <defs>
  <style type="text/css">
   <![CDATA[
    .fil1 {fill:white}
    .fil0 {fill:white;fill-rule:nonzero}
   ]]>
  </style>
 </defs>
 <g id="Layer_x0020_1">
  <metadata id="CorelCorpID_0Corel-Layer"/>
  <g id="_2101212793712">
   <path class="fil0" d="M1.73 0.25l-1.51 0.87 0 1.73 1.51 0.88 1.51 -0.88 0 -1.73 -1.51 -0.87zm-1.68 0.72l1.68 -0.97 1.73 1 0 1.98 -1.73 0.99 -1.73 -0.99 0 -1.98 0.05 -0.03z"/>
   <path class="fil1" d="M2.17 2.83l0.53 -0.31 0 -0.38 -0.6 0 0 -0.35 0.6 0 0 -0.34 -0.53 -0.31 0 0.44 -0.34 0 0 -0.02c0,-0.35 0,-0.7 0,-1.05l1.21 0.69 0 1.57 -1.21 0.69c0,-0.35 0,-0.7 0,-1.05l0 -0.01 0.34 0 0 0.43zm-0.88 -1.69l-0.53 0.31 0 1.07 0.53 0.31 0 -0.69 -0.17 0 0 -0.35 0.5 0 0 0.02c0,0.55 0,1.1 0,1.65l-1.2 -0.69 0 -1.57 1.2 -0.69c0,0.35 0,0.7 0,1.05l0 0.02 -0.33 0 0 -0.44z"/>
  </g>
 </g>
</svg>
